<?xml version="1.0" encoding="utf-8" ?><svg xmlns="http://www.w3.org/2000/svg" xmlns:xlink="http://www.w3.org/1999/xlink" width="1024" height="1024" viewBox="0 0 1024 1024"><path fill="#333332" transform="scale(2 2)" d="M152.999 138.495L152.978 116.618C152.943 97.397 153.039 88.3089 176.689 88.3183L402.648 88.2894C421.126 88.3451 421.266 103.6 421.26 116.645L421.243 223.848L434.746 223.826C461.414 223.713 459.774 233.015 459.765 256.779L459.773 405.92C459.653 421.225 449.614 423.383 437.514 423.38L247.232 423.409C229.558 423.505 232.493 402.694 232.497 390.709L232.486 347.722C232.488 341.599 232.84 332.089 232.482 326.381C229.591 326.084 224.908 326.413 221.758 326.381C221.756 330.079 221.819 333.484 221.378 337.149C218.93 357.454 198.118 375.676 177.216 372.528L106.999 372.541C81.3195 372.541 56.2756 360.764 52.6847 332.274C52.0218 327.015 51.0992 298.643 52.6558 294.59C54.0812 293.304 69.6783 293.754 72.9776 293.756L102.748 293.768C110.84 293.85 108.628 297.877 108.541 305.624C110.854 305.5 111.712 305.48 113.942 306.37C113.869 310.57 113.928 314.667 113.942 318.861C121.327 321.187 136.335 319.082 144.808 319.75C153.701 320.45 159.778 320.073 160.326 309.553C161.199 292.792 157.364 294.124 143.341 287.89L103.621 269.871C68.602 254.183 50.7428 250.559 52.7091 205.721C53.1647 195.332 51.6116 184.881 54.0855 174.705C58.4991 156.549 74.6997 142.033 93.0771 139.156C100.157 138.047 108.623 138.487 115.85 138.488L152.999 138.495ZM221.758 319.761L232.482 319.761L232.482 287.43L221.758 287.43C221.525 288.823 221.745 294.883 221.75 296.805L221.758 319.761ZM453.232 237.259C448.068 227.432 437.057 230.329 427.197 230.33L249.076 230.364C235.845 230.592 238.873 247.731 238.874 257.334L238.877 395.236C238.876 408.391 235.748 416.775 251.165 416.78L425.367 416.776C431.948 416.776 445.894 418.578 450.626 414.056C454.847 410.023 453.241 400.22 453.234 394.477L453.231 278.527C453.231 264.897 453.024 250.834 453.232 237.259ZM199.47 160.68C188.873 145.831 172.648 144.978 156.472 144.97L112.325 144.974C98.0201 144.983 88.3496 144.22 76.3439 153.001C59.3316 165.444 58.1459 181.844 58.8468 201.147C59.5383 220.191 56.2269 238.401 76.7009 250.108C76.4752 249.384 73.8567 246.96 73.1737 246.259C63.1935 236.018 64.5718 222.189 64.7459 209.084C64.8462 201.538 64.2332 193.058 65.2658 185.616C68.8107 160.068 90.233 149.376 113.611 149.473L153.396 149.492C168.784 149.484 179.434 149.106 193.084 156.917C194.977 158 197.496 159.973 199.47 160.68ZM164.355 191.241C167.581 196.697 168.216 201.533 167.762 207.891C169.596 207.863 171.728 207.779 173.531 207.891C173.375 200.871 171.57 194.173 164.355 191.241ZM206.858 267.453C200.141 256.544 181.159 250.384 169.552 245.156L110.34 218.379C110.69 219.591 115.311 224.54 116.391 225.036L197.877 261.666C200.478 262.828 205.484 267.261 206.858 267.453ZM165.84 296.049C169.579 309.435 166.419 327.315 148.137 326.376C136.841 325.796 123.507 327.679 112.2 325.157C115.557 330.424 120.699 332.2 126.603 332.135C146.413 331.536 173.811 339.385 171.52 309.928C171.327 307.448 171.464 294.875 165.84 296.049ZM58.8612 300.403L58.8393 317.679C58.6983 333.939 61.7727 350.824 78.2018 359.179C77.8128 358.466 75.7698 356.31 75.1092 355.599C60.9137 340.319 66.1386 323.819 64.77 305.903L64.7461 305.624L102.26 305.624L102.26 300.403C87.9244 300.23 73.2249 300.405 58.8612 300.403Z"/><path fill="#70CBBB" transform="scale(2 2)" d="M165.84 138.495L165.822 117.616C165.771 100.809 163.283 101.485 178.655 101.484L407.542 101.491C407.32 105.65 407.516 111.223 407.53 115.488L407.542 223.848L351.75 223.848C348.553 223.849 329.817 224.08 328.936 223.596C315.543 216.249 292.118 200.693 279.577 193.302C287.473 187.132 294.438 182.468 302.533 176.685L337.239 151.809C340.823 149.256 354.766 139.913 356.515 137.661L356.431 137.021C355.134 135.158 353.211 135.185 351.401 134.064C350.535 128.741 347.277 128.849 342.726 128.823L306.665 128.773C302.113 128.776 298.139 128.128 294.227 130.899L251.485 161.384C232.057 175.217 232.124 171.027 253.757 184.647L294.605 210.231C300.786 214.107 310.21 219.571 315.915 223.848L256.509 223.845C231.793 223.782 232.46 231.976 232.475 252.795L232.482 281.18C231.484 280.995 223.389 281.162 221.758 281.18C221.596 275.945 217.355 267.465 212.803 264.786C205.723 254.339 200.495 251.563 188.96 246.986C182.09 244.259 168.605 238.275 162.261 234.592L162.032 234.456L162.032 220.506C164.509 220.655 167.97 220.517 170.54 220.516L207.123 220.513C211.19 220.512 223.357 222.341 223.283 216.528C223.069 199.707 225.593 181.644 214.601 167.306C213.374 165.705 208.568 159.373 206.858 159.089C206.511 158.837 204.883 156.814 204.446 156.3C194.675 144.833 181.167 138.943 165.84 138.495Z"/><path fill="white" transform="scale(2 2)" d="M206.858 159.089C208.568 159.373 213.374 165.705 214.601 167.306C225.593 181.644 223.069 199.707 223.283 216.528C223.357 222.341 211.19 220.512 207.123 220.513L170.54 220.516C167.97 220.517 164.509 220.655 162.032 220.506L162.032 234.456C145.548 227 128.576 219.588 112.2 211.984C112.149 207.315 112.174 196.959 119.264 196.368C132.18 195.29 146.364 196.528 159.227 196.02C162.353 199.8 161.075 209.059 161.256 214.379L217.044 214.379C217.073 192.976 219.387 177.813 206.858 159.089Z"/><path fill="white" transform="scale(2 2)" d="M159.227 138.495L159.214 116.076C159.203 105.268 158.109 94.9636 171.791 94.5944L374.571 94.5893C385.446 94.5851 408.151 90.559 413.653 101.491C411.38 101.37 409.826 101.394 407.542 101.491L178.655 101.484C163.283 101.485 165.771 100.809 165.822 117.616L165.84 138.495L159.227 138.495Z"/><path fill="#3EA48B" transform="scale(2 2)" d="M407.542 101.491C409.826 101.394 411.38 101.37 413.653 101.491C415.453 105.273 415.008 119.763 415.006 124.459L415.003 223.848C412.337 223.935 410.227 223.991 407.542 223.848L407.53 115.488C407.516 111.223 407.32 105.65 407.542 101.491Z"/><path fill="white" transform="scale(2 2)" d="M351.401 134.064C353.211 135.185 355.134 135.158 356.431 137.021L356.515 137.661C354.766 139.913 340.823 149.256 337.239 151.809L302.533 176.685C294.438 182.468 287.473 187.132 279.577 193.302C277.609 192.05 275.975 191.22 273.837 190.335C276.811 187.373 281.664 184.027 285.14 181.561L351.401 134.064Z"/><path fill="#FD7069" transform="scale(2 2)" d="M216.261 287.43C218.058 287.267 220.009 286.974 221.758 287.43L221.758 287.43C221.525 288.823 221.745 294.883 221.75 296.805L221.758 319.761C221.671 322.154 221.656 323.992 221.758 326.381C221.756 330.079 221.819 333.484 221.378 337.149C218.93 357.454 198.118 375.676 177.216 372.528C179.605 371.341 182.742 370.523 185.243 369.573C212.97 359.077 216.313 339.481 216.276 314.374L216.261 287.43Z"/><path fill="#FD7069" transform="scale(2 2)" d="M112.2 211.984C102.891 207.197 106.079 190.273 117.078 190.374C127.916 190.474 153.291 186.662 159.227 196.02C146.364 196.528 132.18 195.29 119.264 196.368C112.174 196.959 112.149 207.315 112.2 211.984Z"/><path fill="#3EA48B" transform="scale(2 2)" d="M212.803 264.786C217.355 267.465 221.596 275.945 221.758 281.18C223.389 281.162 231.484 280.995 232.482 281.18C229.433 281.309 224.869 281.265 221.758 281.18C221.788 283.215 221.864 285.412 221.758 287.43C220.009 286.974 218.058 287.267 216.261 287.43C216.831 277.575 216.116 273.834 212.803 264.786Z"/><path fill="#FD7069" transform="scale(2 2)" d="M108.541 305.624C110.854 305.5 111.712 305.48 113.942 306.37C113.869 310.57 113.928 314.667 113.942 318.861C108.235 315.958 108.364 311.063 108.541 305.624Z"/><path fill="#CDD07D" transform="scale(2 2)" d="M248.268 411.763C247.051 408.784 245.33 410.688 245.243 406.193C245.09 398.334 245.188 390.482 245.192 382.621L245.176 276.514C245.174 266.169 245.115 255.829 245.256 245.48C245.438 232.016 263.981 236.262 274.639 236.263L446.514 236.258C448.065 236.614 451.917 237.643 453.232 237.259C453.024 250.834 453.231 264.897 453.231 278.527L453.234 394.477C453.241 400.22 454.847 410.023 450.626 414.056C445.894 418.578 431.948 416.776 425.367 416.776L251.165 416.78C249.73 415.106 249.119 413.753 248.268 411.763ZM283.805 284.339C296.366 296.133 311.967 310.583 323.302 323.388C320.449 326.504 316.335 330.258 313.246 333.281L295.631 350.781C293.004 353.418 285.782 359.674 285.173 362.942C285.723 365.297 303.424 381.26 306.386 384.418C307.026 385.363 310.849 388.771 311.867 389.702C318.823 379.571 336.247 364.918 345.353 355.362C347.526 353.082 349.738 350.578 352.16 348.592C362.876 358.834 377.923 373.327 387.618 384.418C390.401 386.806 390.795 386.51 393.323 389.702C399.819 382.588 408.977 373.368 416.028 367.156C413.961 365.287 412.5 363.714 410.667 361.669C408.832 359.36 403.299 354.212 400.944 351.844L375.991 327.061C378.406 324.933 382.48 320.513 385.079 317.967L402.878 300.824C406.886 296.904 410.882 292.603 415.003 288.855C413.795 287.103 412.049 285.172 410.667 283.465C403.329 275.903 394.334 267.738 387.618 259.893C376.008 270.934 356.245 288.31 346.713 300.403C342.675 295.822 338.111 291.449 333.766 287.134L318.561 271.982C315.58 269.043 309.804 263.664 307.35 260.654C299.71 268.672 291.205 276.469 283.805 284.339Z"/><path fill="#A8A939" transform="scale(2 2)" d="M446.514 236.258C448.065 236.614 451.917 237.643 453.232 237.259C453.024 250.834 453.231 264.897 453.231 278.527L453.234 394.477C453.241 400.22 454.847 410.023 450.626 414.056C445.894 418.578 431.948 416.776 425.367 416.776L251.165 416.78C249.73 415.106 249.119 413.753 248.268 411.763C249.141 411.443 290.412 411.768 293.998 411.767L429.459 411.768C451.043 411.763 446.513 405.758 446.51 386.835L446.514 236.258Z"/><path fill="#333332" transform="scale(2 2)" d="M346.713 300.403C356.245 288.31 376.008 270.934 387.618 259.893C394.334 267.738 403.329 275.903 410.667 283.465C408.237 285.148 405.32 288.272 403.128 290.415L378.213 315.161C375.942 317.437 373.112 320.116 371.043 322.468C372.815 323.909 374.361 325.468 375.991 327.061L400.944 351.844C403.299 354.212 408.832 359.36 410.667 361.669C412.5 363.714 413.961 365.287 416.028 367.156C408.977 373.368 399.819 382.588 393.323 389.702C390.795 386.51 390.401 386.806 387.618 384.418C377.923 373.327 362.876 358.834 352.16 348.592L347.739 344.291C339.312 352.962 330.628 361.448 322.063 369.999L313.826 378.225C311.664 380.405 309.287 383.434 306.386 384.418C303.424 381.26 285.723 365.297 285.173 362.942C285.782 359.674 293.004 353.418 295.631 350.781L313.246 333.281C316.335 330.258 320.449 326.504 323.302 323.388C311.967 310.583 296.366 296.133 283.805 284.339C291.205 276.469 299.71 268.672 307.35 260.654C309.804 263.664 315.58 269.043 318.561 271.982L333.766 287.134C338.111 291.449 342.675 295.822 346.713 300.403ZM346.713 309.163C348.24 310.38 349.955 312.082 351.401 313.443C353.412 311.521 357.425 307.78 359.038 305.624C359.788 302.567 360.111 305.152 358.17 302.957C357.379 302.063 357.968 301.392 357.362 300.344L356.496 300.403C353.762 302.305 349.371 306.747 346.713 309.163ZM293.187 362.555L297.536 367.156C298.759 365.768 299.339 365.355 300.798 364.23C299.987 361.011 298.667 364.304 298.484 358.674L297.536 359.179C295.687 360.038 294.622 361.157 293.187 362.555Z"/><path fill="white" transform="scale(2 2)" d="M410.667 361.669C412.5 363.714 413.961 365.287 416.028 367.156C408.977 373.368 399.819 382.588 393.323 389.702C390.795 386.51 390.401 386.806 387.618 384.418C388.677 383.572 389.612 382.713 390.613 381.806C396.119 375.824 402.25 369.674 408.264 364.23C408.951 363.423 409.922 362.457 410.667 361.669Z"/><path fill="#FECB5B" transform="scale(2 2)" d="M408.264 364.23C408.604 368.667 393.513 381.818 390.613 381.806C396.119 375.824 402.25 369.674 408.264 364.23Z"/><path fill="#847B72" transform="scale(2 2)" d="M387.618 269.026L391.728 273.434C394.754 276.255 398.936 280.426 401.651 283.465C390.556 292.34 376.324 307.602 365.702 318.293C363.278 321.294 362.175 321.922 364.978 324.99C375.507 336.511 390.224 350.972 401.651 361.669C396.171 365.859 392.458 370.704 387.618 374.984C381.208 368.951 352.193 338.189 347.739 336.382C344.834 337.645 338.997 344.1 336.403 346.691L314.134 368.768C311.816 371.094 309.298 373.403 307.35 376.037C304.034 373.343 300.702 370.077 297.536 367.156C298.759 365.768 299.339 365.355 300.798 364.23C299.987 361.011 298.667 364.304 298.484 358.674L297.536 359.179C299.687 355.711 303.918 351.839 306.925 348.837L319.007 336.863C321.466 334.441 328.949 326.793 331.308 325.157C333.286 322.71 330.176 320.974 328.039 318.972C319.047 310.51 305.424 298.25 297.536 288.855L293.187 284.339C297.342 279.572 302.782 274.47 307.35 270.021C309.144 271.439 310.261 272.622 311.867 274.28C313.372 275.491 314.929 277.216 316.302 278.611C319.776 282.138 343.792 307.505 346.713 309.163C348.24 310.38 349.955 312.082 351.401 313.443C353.412 311.521 357.425 307.78 359.038 305.624C359.788 302.567 360.111 305.152 358.17 302.957C357.379 302.063 357.968 301.392 357.362 300.344L356.496 300.403C361.497 293.67 380.701 274.925 387.618 269.026Z"/><path fill="white" transform="scale(2 2)" d="M331.308 325.157C333.13 326.436 334.093 327.084 335.613 328.717C333.231 331.5 329.999 334.572 327.377 337.199L309.676 354.715C307.175 357.226 302.711 361.481 300.798 364.23C299.987 361.011 298.667 364.304 298.484 358.674L297.536 359.179C299.687 355.711 303.918 351.839 306.925 348.837L319.007 336.863C321.466 334.441 328.949 326.793 331.308 325.157Z"/><path fill="white" transform="scale(2 2)" d="M387.618 269.026L391.728 273.434C384.066 281.996 367.826 298.355 359.038 305.624C359.788 302.567 360.111 305.152 358.17 302.957C357.379 302.063 357.968 301.392 357.362 300.344L356.496 300.403C361.497 293.67 380.701 274.925 387.618 269.026Z"/><path fill="white" transform="scale(2 2)" d="M307.35 270.021C309.144 271.439 310.261 272.622 311.867 274.28C307.108 279.177 302.191 283.869 297.536 288.855L293.187 284.339C297.342 279.572 302.782 274.47 307.35 270.021Z"/><path fill="#FD7069" transform="scale(2 2)" d="M76.7009 250.108C76.4752 249.384 73.8567 246.96 73.1737 246.259C63.1935 236.018 64.5718 222.189 64.7459 209.084C64.8462 201.538 64.2332 193.058 65.2658 185.616C68.8107 160.068 90.233 149.376 113.611 149.473L153.396 149.492C168.784 149.484 179.434 149.106 193.084 156.917C194.977 158 197.496 159.973 199.47 160.68C211.7 171.22 210.928 193.518 210.898 207.891C198.498 207.79 185.893 208.071 173.531 207.891C173.375 200.871 171.57 194.173 164.355 191.241C157.797 184.555 155.013 184.051 145.71 183.963L128.907 183.943C124.144 183.947 115.995 183.526 111.861 184.86C100.204 188.622 96.4745 205.679 105.206 214.191C107.025 215.964 108.49 216.934 110.34 218.379C110.69 219.591 115.311 224.54 116.391 225.036L197.877 261.666C200.478 262.828 205.484 267.261 206.858 267.453C210.554 276.249 210.216 280.031 210.209 289.484L210.197 305.013C210.173 328.652 211.926 351.849 184.438 362.994C175.79 366.668 167.963 365.986 158.807 365.99L111.253 365.986C101.572 365.979 85.6257 366.423 78.2018 359.179C77.8128 358.466 75.7698 356.31 75.1092 355.599C60.9137 340.319 66.1386 323.819 64.77 305.903L64.7461 305.624L102.26 305.624C101.416 318.157 104.074 318.523 112.2 325.157C115.557 330.424 120.699 332.2 126.603 332.135C146.413 331.536 173.811 339.385 171.52 309.928C171.327 307.448 171.464 294.875 165.84 296.049C164.371 289.375 157.419 287.164 152.051 284.755L87.9745 255.742C84.796 254.305 79.2831 252.027 76.7009 250.108Z"/><path fill="#70CBBB" transform="scale(2 2)" d="M299.322 135.208L338.077 135.208C335.632 137.511 332.755 139.841 329.73 141.318C309.665 156.764 288.124 170.768 268.005 185.943C264.248 183.639 255.745 178.745 252.722 176.414C250.882 175.279 248.91 173.911 247.092 172.707C259.474 162.23 277.431 150.995 290.862 141.233C293.567 139.268 296.466 136.875 299.322 135.208Z"/><path fill="white" transform="scale(2 2)" d="M299.322 135.208L338.077 135.208C335.632 137.511 332.755 139.841 329.73 141.318C326.564 141.087 304.006 141.025 302.005 141.557C299.115 142.324 256.438 172.418 252.722 176.414C250.882 175.279 248.91 173.911 247.092 172.707C259.474 162.23 277.431 150.995 290.862 141.233C293.567 139.268 296.466 136.875 299.322 135.208Z"/></svg>