<?xml version="1.0" encoding="utf-8" ?><svg xmlns="http://www.w3.org/2000/svg" xmlns:xlink="http://www.w3.org/1999/xlink" width="1024" height="1024" viewBox="0 0 1024 1024"><path fill="#3C3C3B" transform="scale(2 2)" d="M394.851 110.664C405.708 101.967 417.779 87.387 428.593 77.4092C432.648 73.6682 437.796 79.5694 435.12 82.9635C432.53 86.2482 428.36 89.98 425.357 93.0116C416.244 102.214 402.889 114.146 395.07 123.814L394.851 124.088C394.714 128.137 394.774 133.403 394.851 137.462C397.232 134.544 401.56 134.937 401.756 138.832C401.936 142.414 401.786 146.353 401.786 149.978L401.79 202.465C401.792 224.349 405.919 221.908 385.107 221.864L338.504 221.888C330.072 221.9 324.87 224.496 327.114 213.95C325.132 213.945 322.365 214.288 320.558 213.95C315.555 218 308.489 226.357 303.914 229.36C311.203 233.614 334.412 240.289 343.246 243.473C367.331 252.156 389.531 281.95 395.943 306.944C404.936 323.009 404.508 347.421 400.002 364.542C387.892 410.564 348.515 432.754 303.521 432.761L168.963 432.762C164.172 432.761 147.778 433.075 144.39 432.175C142.901 430.285 143.323 426.54 143.759 424.28C142.358 424.286 134.977 424.471 134.199 424.28C128.532 422.441 130.502 414.152 130.504 408.674L130.522 384.542C127.235 387.183 123.775 391.524 120.563 394.523C107.945 406.307 96.0925 418.987 83.5118 430.778C81.1544 432.987 76.3216 429.879 76.6633 426.929C77.0265 423.794 81.6548 420.258 83.9124 418.004L96.7073 405.305C105.375 396.839 114.058 387.766 122.937 379.552C101.14 379.481 103.02 383.214 103.05 362.978L103.05 312.807C103.038 295.988 100.082 295.901 117.763 295.893L184.823 295.896C189.479 292.526 198.713 282.357 202.74 277.924C188.14 275.157 152.518 260.333 143.759 250.867C142.532 250.322 134.86 244.382 133.429 243.143C71.9542 189.361 101.654 85.9892 185.283 78.7816C194.898 77.953 205.527 78.3592 215.301 78.3604L369.489 78.3977C377.993 78.9736 376.411 82.3399 376.407 90.6593L376.376 104.776C383.704 100.708 393.145 100.328 394.851 110.664ZM293.699 225.727C294.793 226.225 302.226 229.305 303.028 229.36C304.97 225.636 315.438 215.912 319.131 212.283C317.829 209.19 318.216 204.407 318.258 200.951L293.699 225.727ZM139.241 378.303L139.241 415.432C141.496 415.481 143.511 415.525 145.771 415.432L145.765 393.909C145.758 390.135 145.609 385.791 145.771 382.081C146.758 380.933 149.533 378.567 150.814 377.329L162.427 365.914C169.269 359.214 179.146 348.123 186.674 342.573C185.903 338.713 185.689 336.575 185.747 332.639C171.599 346.214 157.547 360.167 143.526 373.894C142.201 375.191 140.379 376.923 139.241 378.303ZM363.795 269.867C364.466 270.004 364.6 270.13 365.195 269.867C354.373 258.301 345.8 253.845 331.288 248.715L302.449 238.305C300.577 237.61 297.573 236.405 295.703 235.967L292.134 239.416C295.086 241.496 303.329 244.403 306.942 245.703L339.833 257.263C349.589 260.797 355.95 262.205 363.795 269.867ZM386.162 133.772C381.927 136.883 377.803 141.871 373.968 145.608L337.82 181.507C335.403 183.883 328.883 189.921 327.114 192.342L327.114 205.033C329.367 205.068 331.489 205.095 333.746 205.033C333.742 194.061 335.236 195.388 343.018 187.581L377.7 152.853C380.41 150.157 383.318 146.92 386.162 144.486C386.262 141.949 386.324 136.312 386.162 133.772ZM259.534 287.395C262.736 288.215 263.882 288.625 266.867 289.926C266.926 281.91 266.659 273.57 267.077 265.544C267.258 262.064 289.268 240.686 291.568 239.416C292.705 238.147 293.618 237.08 294.913 235.967C292.182 234.642 289.962 233.62 287.148 232.484C285.134 234.073 282.274 237.105 280.396 238.979L269.342 249.843C265.992 253.138 263.303 256.122 259.534 258.944C260.441 266.41 259.517 279.427 259.534 287.395ZM119.237 312.02L151.278 312.016C156.297 312.013 162.66 311.795 167.568 312.02C169.769 310.886 173.637 306.707 175.543 304.765L111.821 304.765L111.821 368.344C114.076 366.009 117.413 362.711 119.237 360.136C118.97 357.516 119.225 348.219 119.228 345.055L119.237 312.02ZM259.534 415.432C261.85 415.282 263.452 415.194 265.771 415.432C266.962 408.582 265.987 384.743 265.771 377.261C275.457 377.281 286.515 378.241 295.652 374.898C315.353 367.691 330.364 346.131 322.834 325.097C321.069 320.165 314.681 311.515 309.769 309.39C322.602 328.071 321.824 349.325 301.813 363.33C288.075 372.946 275.136 369.947 259.534 370.385C259.529 384.893 259.152 401.066 259.534 415.432ZM250.242 269.867C246.304 272.081 241.741 277.089 238.972 280.631C239.923 280.622 240.871 280.603 241.822 280.631C244.614 281.472 247.437 282.35 250.242 283.136C250.257 281.77 250.41 270.04 250.242 269.867ZM236.753 293.18C238.013 291.809 238.761 291.137 240.188 289.926C237.528 289.02 235.025 288.165 232.318 287.395C229.592 289.284 226.16 292.797 223.763 295.166L212.676 306.148C209.451 309.314 198.177 319.506 196.807 322.198C189.105 337.338 200.719 359.043 217.774 361.056C223.49 361.731 227.366 361.502 232.175 361.498L271.844 361.498C276.14 361.504 280.642 361.757 284.871 361.03C305.162 357.544 318.338 329.494 303.914 317.153C300.671 316.782 288.206 311.941 284.419 310.728C268.988 305.786 252.319 299.317 236.753 295.253C231.265 300.348 225.065 306.574 219.764 311.875L208.28 323.283C206.173 325.391 204.081 327.688 201.898 329.687C205.023 323.713 229.903 298.856 236.753 293.18ZM250.747 377.261L250.747 370.385C234.406 370.171 218.785 372.711 203.796 365.384C204.784 367.996 213.127 373.224 215.819 374.381C225.264 378.443 240.194 377.274 250.747 377.261ZM194.324 196.33C196.748 203.48 215.377 208.992 221.509 211.045L246.021 219.348C248.209 220.105 256.193 222.749 257.879 223.735C258.909 222.992 260.813 221.153 261.826 220.223C257.082 218.244 249.79 215.956 244.835 214.264L218.992 205.318C210.067 202.255 203.103 200.109 194.324 196.33ZM265.771 133.772L265.771 94.1903L367.191 94.1903L367.191 87.6028L259.534 87.6028L259.534 133.772L265.771 133.772ZM250.747 94.1903C250.727 91.9967 250.69 89.7951 250.747 87.6028L209.625 87.5944C201.598 87.5957 193.052 87.3535 185.08 87.9043C107.335 93.8255 83.2385 198.199 143.759 239.416C143.253 238.587 142.061 237.561 141.339 236.877C87.7509 186.093 123.869 91.7058 200.428 94.1846C204.516 94.317 209.033 94.1838 213.179 94.1847L250.747 94.1903Z"/><path fill="#FECB5B" transform="scale(2 2)" d="M395.943 306.944C404.936 323.009 404.508 347.421 400.002 364.542C387.892 410.564 348.515 432.754 303.521 432.761L168.963 432.762C164.172 432.761 147.778 433.075 144.39 432.175C142.901 430.285 143.323 426.54 143.759 424.28C142.358 424.286 134.977 424.471 134.199 424.28C139.509 424.074 146.246 424.284 151.684 424.284L301.608 424.285C361.44 424.175 404.006 376.199 397.324 316.39C396.99 313.397 395.864 309.916 395.943 306.944Z"/><path fill="#E37451" transform="scale(2 2)" d="M394.851 137.462C397.232 134.544 401.56 134.937 401.756 138.832C401.936 142.414 401.786 146.353 401.786 149.978L401.79 202.465C401.792 224.349 405.919 221.908 385.107 221.864L338.504 221.888C330.072 221.9 324.87 224.496 327.114 213.95C339.177 213.652 392.409 215.045 393.722 213.336C395.416 211.131 394.868 205.221 394.864 202.423L394.851 137.462Z"/><path fill="#0D9BA6" transform="scale(2 2)" d="M143.759 250.867C145.787 251.044 150.486 253.925 152.669 254.873C168.267 261.64 193.619 266.937 206.83 274.204C205.193 275.537 204.232 276.422 202.74 277.924C188.14 275.157 152.518 260.333 143.759 250.867Z"/><path fill="#E37451" transform="scale(2 2)" d="M319.131 212.283C319.65 212.834 320.151 213.312 320.558 213.95C315.555 218 308.489 226.357 303.914 229.36L303.028 229.36C304.97 225.636 315.438 215.912 319.131 212.283Z"/><path fill="#FECB5B" transform="scale(2 2)" d="M250.747 94.1903L250.747 133.772L224.47 133.771C217.409 133.771 208.845 133.22 202.033 134.853C172.906 141.834 168.014 178.44 194.324 196.33C196.748 203.48 215.377 208.992 221.509 211.045L246.021 219.348C248.209 220.105 256.193 222.749 257.879 223.735C243.669 238.144 227.722 252.016 214.02 266.759C201.306 262.396 150.802 247.73 143.759 239.416C143.253 238.587 142.061 237.561 141.339 236.877C87.7509 186.093 123.869 91.7058 200.428 94.1846C204.516 94.317 209.033 94.1838 213.179 94.1847L250.747 94.1903Z"/><path fill="#FECB5B" transform="scale(2 2)" d="M291.568 239.416L292.134 239.416C295.086 241.496 303.329 244.403 306.942 245.703L339.833 257.263C349.589 260.797 355.95 262.205 363.795 269.867C364.466 270.004 364.6 270.13 365.195 269.867C366.548 271 368.037 272.815 369.171 274.204C413.699 323.366 380.338 410.361 311.948 415.153C305.94 415.574 300.146 415.442 294.188 415.438L265.771 415.432C266.962 408.582 265.987 384.743 265.771 377.261C275.457 377.281 286.515 378.241 295.652 374.898C315.353 367.691 330.364 346.131 322.834 325.097C321.069 320.165 314.681 311.515 309.769 309.39C298.44 297.903 289.134 297.16 274.357 291.912C272.007 291.077 269.32 290.188 266.867 289.926C266.926 281.91 266.659 273.57 267.077 265.544C267.258 262.064 289.268 240.686 291.568 239.416Z"/><path fill="#FFF4CE" transform="scale(2 2)" d="M365.195 269.867C366.548 271 368.037 272.815 369.171 274.204L368.779 274.35C367.62 274.122 364.771 270.887 363.795 269.867C364.466 270.004 364.6 270.13 365.195 269.867Z"/><path fill="white" transform="scale(2 2)" d="M194.324 185.269C187.613 181.136 184.523 169.779 186.285 162.336C190.845 143.073 205.026 142.723 220.58 142.73L262.751 142.72C274.606 142.704 284.406 142.158 291.568 154.17C296.546 165.014 294.939 174.552 294.913 186.402C288.17 193.937 273.561 206.608 268.704 213.95C252.864 205.283 200.799 193.648 194.324 185.269Z"/><path fill="#FECB5B" transform="scale(2 2)" d="M194.324 185.269C187.613 181.136 184.523 169.779 186.285 162.336C190.845 143.073 205.026 142.723 220.58 142.73L262.751 142.72C274.606 142.704 284.406 142.158 291.568 154.17C280.553 149.913 280.339 150.304 268.701 150.312L228.25 150.318C213.218 150.3 200.413 150.331 194.28 167.294C191.722 174.39 192.312 178.311 194.324 185.269Z"/><path fill="#FECB5B" transform="scale(2 2)" d="M186.674 342.573C189.757 353.367 194.76 359.035 203.796 365.384C204.784 367.996 213.127 373.224 215.819 374.381C225.264 378.443 240.194 377.274 250.747 377.261L250.747 415.432L145.771 415.432L145.765 393.909C145.758 390.135 145.609 385.791 145.771 382.081C146.758 380.933 149.533 378.567 150.814 377.329L162.427 365.914C169.269 359.214 179.146 348.123 186.674 342.573Z"/><path fill="#61C9A8" transform="scale(2 2)" d="M265.771 94.1903L367.191 94.1903C367.204 100.433 367.438 108.337 367.191 114.442C365.367 117.084 357.182 124.894 354.327 127.731L327.643 154.222C323.023 158.798 315.552 167.441 310.751 171.093C308.745 173.605 306.369 175.752 303.914 177.808C303.969 161.536 304.228 151.203 290.48 140.063C289.832 139.854 287.203 138.027 286.44 137.589C279.707 133.722 273.147 133.515 265.771 133.772L265.771 94.1903Z"/><path fill="white" transform="scale(2 2)" d="M290.48 140.063C292.551 140.07 294.832 142.204 296.311 143.424C307.672 152.806 307.224 158.858 310.751 171.093C308.745 173.605 306.369 175.752 303.914 177.808C303.969 161.536 304.228 151.203 290.48 140.063Z"/><path fill="#0D9BA6" transform="scale(2 2)" d="M384.861 110.664L385.476 111.012C386.392 112.151 386.154 118.634 386.162 120.522C371.853 135.436 356.122 150.441 341.391 165.05L150.262 355.143C147.213 358.14 136.912 368.689 134.199 370.385C132.767 370.631 125.028 370.388 122.937 370.385L122.293 370.365L122.369 370.011C127.508 363.731 136.036 355.931 141.908 350.153L373.489 121.356C376.063 118.824 382.032 111.853 384.861 110.664Z"/><path fill="#E37451" transform="scale(2 2)" d="M386.162 144.486L386.162 205.033L351.136 205.041C346.203 205.042 338.491 205.302 333.746 205.033C333.742 194.061 335.236 195.388 343.018 187.581L377.7 152.853C380.41 150.157 383.318 146.92 386.162 144.486Z"/><path fill="#61C9A8" transform="scale(2 2)" d="M119.237 312.02L151.278 312.016C156.297 312.013 162.66 311.795 167.568 312.02C162.934 317.413 157.184 322.223 152.226 327.34C142.311 337.571 129.969 350.926 119.237 360.136C118.97 357.516 119.225 348.219 119.228 345.055L119.237 312.02Z"/><path fill="#0D9BA6" transform="scale(2 2)" d="M240.188 289.926C252.699 293.829 298.196 305.323 303.914 317.153C300.671 316.782 288.206 311.941 284.419 310.728C268.988 305.786 252.319 299.317 236.753 295.253C236.99 294.311 236.906 294.117 236.753 293.18C238.013 291.809 238.761 291.137 240.188 289.926Z"/><path fill="#E37451" transform="scale(2 2)" d="M201.898 329.687C205.023 323.713 229.903 298.856 236.753 293.18C236.906 294.117 236.99 294.311 236.753 295.253C231.265 300.348 225.065 306.574 219.764 311.875L208.28 323.283C206.173 325.391 204.081 327.688 201.898 329.687Z"/><path fill="#FECB5B" transform="scale(2 2)" d="M294.913 235.967L295.703 235.967L292.134 239.416L291.568 239.416C292.705 238.147 293.618 237.08 294.913 235.967Z"/></svg>